# WaveFront *.obj file (generated by Autodesk ATF)

mtllib TV.mtl

g Body1

v 5.118513 -3.618513 0.700000
v -5.118513 -3.618513 0.700000
v -5.118513 -3.618513 0.800000
v 5.118513 -3.618513 0.800000
v 5.118513 3.618513 0.700000
v 5.118513 3.618513 0.800000
v -5.118513 3.618513 0.700000
v -5.118513 3.618513 0.800000
v 5.268513 -3.768513 0.700000
v 5.268513 3.768513 0.700000
v 5.268513 3.768513 0.800000
v 5.268513 -3.768513 0.800000
v -5.268513 -3.768513 0.700000
v -5.268513 -3.768513 0.800000
v -5.268513 3.768513 0.700000
v -5.268513 3.768513 0.800000
v -3.000000 1.500000 0.300000
v -3.000000 -1.500000 0.300000
v 3.000000 1.500000 0.300000
v 3.000000 -1.500000 0.300000
v -3.000000 1.500000 0.000000
v -3.000000 -1.500000 0.000000
v 3.000000 1.500000 0.000000
v 3.000000 -1.500000 0.000000
vt -0.000000 0.000000 0.000000
vt 10.237025 0.000000 0.000000
vt 0.000000 0.100000 0.000000
vt 10.237025 0.100000 0.000000
vt 0.000000 0.000000 0.000000
vt 7.237026 0.000000 0.000000
vt 0.000000 0.100000 0.000000
vt 7.237026 0.100000 0.000000
vt -0.000000 0.000000 0.000000
vt 10.237025 0.000000 0.000000
vt -0.000000 0.100000 0.000000
vt 10.237025 0.100000 0.000000
vt 0.000000 0.000000 0.000000
vt 7.237026 0.000000 0.000000
vt 0.000000 0.100000 0.000000
vt 7.237026 0.100000 0.000000
vt 0.000000 0.000000 0.000000
vt 7.537026 0.000000 0.000000
vt -0.000000 0.100000 0.000000
vt 7.537026 0.100000 0.000000
vt 0.000000 0.000000 0.000000
vt 10.537025 0.000000 0.000000
vt 0.000000 0.100000 0.000000
vt 10.537025 0.100000 0.000000
vt 0.000000 0.000000 0.000000
vt 7.537026 0.000000 0.000000
vt -0.000000 0.100000 0.000000
vt 7.537026 0.100000 0.000000
vt 0.000000 0.000000 0.000000
vt 10.537025 0.000000 0.000000
vt 0.000000 0.100000 0.000000
vt 10.537025 0.100000 0.000000
vt -5.118513 3.618513 0.000000
vt -5.268513 -3.768513 0.000000
vt -5.118513 -3.618513 0.000000
vt 5.268513 -3.768513 0.000000
vt 5.118513 -3.618513 0.000000
vt 5.118513 3.618513 0.000000
vt 5.268513 3.768513 0.000000
vt -5.268513 3.768513 0.000000
vt 2.268513 2.303508 0.000000
vt -5.268513 2.303508 0.000000
vt -0.000000 0.000000 0.000000
vt -3.000000 0.000000 0.000000
vt 2.268513 2.303508 0.000000
vt -8.268513 2.303508 0.000000
vt -0.000000 0.000000 0.000000
vt -6.000000 0.000000 0.000000
vt 2.268513 2.303508 0.000000
vt -5.268513 2.303508 0.000000
vt 0.000000 0.000000 0.000000
vt -3.000000 0.000000 0.000000
vt 2.268513 2.303508 0.000000
vt -8.268513 2.303508 0.000000
vt 0.000000 0.000000 0.000000
vt -6.000000 0.000000 0.000000
vt -5.118513 -3.618513 0.000000
vt 5.118513 -3.618513 0.000000
vt -5.118513 3.618513 0.000000
vt 5.118513 3.618513 0.000000
vt -0.000000 0.000000 0.000000
vt 3.000000 0.000000 0.000000
vt -0.000000 0.300000 0.000000
vt 3.000000 0.300000 0.000000
vt -0.000000 0.000000 0.000000
vt 6.000000 0.000000 0.000000
vt -0.000000 0.300000 0.000000
vt 6.000000 0.300000 0.000000
vt 0.000000 0.000000 0.000000
vt 3.000000 0.000000 0.000000
vt 0.000000 0.300000 0.000000
vt 3.000000 0.300000 0.000000
vt -0.000000 0.000000 0.000000
vt 6.000000 0.000000 0.000000
vt 0.000000 0.300000 0.000000
vt 6.000000 0.300000 0.000000
vt -3.000000 -1.500000 0.000000
vt 3.000000 -1.500000 0.000000
vt -3.000000 1.500000 0.000000
vt 3.000000 1.500000 0.000000
vn 0.000000 1.000000 -0.000000
vn 0.000000 1.000000 -0.000000
vn 0.000000 1.000000 -0.000000
vn 0.000000 1.000000 -0.000000
vn -1.000000 0.000000 0.000000
vn -1.000000 0.000000 0.000000
vn -1.000000 0.000000 0.000000
vn -1.000000 0.000000 0.000000
vn 0.000000 -1.000000 0.000000
vn 0.000000 -1.000000 0.000000
vn 0.000000 -1.000000 0.000000
vn 0.000000 -1.000000 0.000000
vn 1.000000 -0.000000 0.000000
vn 1.000000 -0.000000 0.000000
vn 1.000000 -0.000000 0.000000
vn 1.000000 -0.000000 0.000000
vn 1.000000 0.000000 -0.000000
vn 1.000000 0.000000 -0.000000
vn 1.000000 0.000000 -0.000000
vn 1.000000 0.000000 -0.000000
vn 0.000000 -1.000000 0.000000
vn 0.000000 -1.000000 0.000000
vn 0.000000 -1.000000 0.000000
vn 0.000000 -1.000000 0.000000
vn -1.000000 -0.000000 0.000000
vn -1.000000 -0.000000 0.000000
vn -1.000000 -0.000000 0.000000
vn -1.000000 -0.000000 0.000000
vn 0.000000 1.000000 -0.000000
vn 0.000000 1.000000 -0.000000
vn 0.000000 1.000000 -0.000000
vn 0.000000 1.000000 -0.000000
vn 0.000000 0.000000 1.000000
vn 0.000000 0.000000 1.000000
vn 0.000000 0.000000 1.000000
vn 0.000000 0.000000 1.000000
vn 0.000000 0.000000 1.000000
vn 0.000000 0.000000 1.000000
vn 0.000000 0.000000 1.000000
vn 0.000000 0.000000 1.000000
vn -0.173648 0.000000 -0.984808
vn -0.173648 0.000000 -0.984808
vn -0.173648 0.000000 -0.984808
vn -0.173648 0.000000 -0.984808
vn 0.000000 0.173648 -0.984808
vn 0.000000 0.173648 -0.984808
vn 0.000000 0.173648 -0.984808
vn 0.000000 0.173648 -0.984808
vn 0.173648 0.000000 -0.984808
vn 0.173648 0.000000 -0.984808
vn 0.173648 0.000000 -0.984808
vn 0.173648 0.000000 -0.984808
vn 0.000000 -0.173648 -0.984808
vn 0.000000 -0.173648 -0.984808
vn 0.000000 -0.173648 -0.984808
vn 0.000000 -0.173648 -0.984808
vn 0.000000 0.000000 1.000000
vn 0.000000 0.000000 1.000000
vn 0.000000 0.000000 1.000000
vn 0.000000 0.000000 1.000000
vn -1.000000 0.000000 0.000000
vn -1.000000 0.000000 0.000000
vn -1.000000 0.000000 0.000000
vn -1.000000 0.000000 0.000000
vn 0.000000 1.000000 0.000000
vn 0.000000 1.000000 0.000000
vn 0.000000 1.000000 0.000000
vn 0.000000 1.000000 0.000000
vn 1.000000 0.000000 -0.000000
vn 1.000000 0.000000 -0.000000
vn 1.000000 0.000000 -0.000000
vn 1.000000 0.000000 -0.000000
vn 0.000000 -1.000000 0.000000
vn 0.000000 -1.000000 0.000000
vn 0.000000 -1.000000 0.000000
vn 0.000000 -1.000000 0.000000
vn -0.000000 0.000000 -1.000000
vn -0.000000 0.000000 -1.000000
vn -0.000000 0.000000 -1.000000
vn -0.000000 0.000000 -1.000000
usemtl Steel_-_Satin
f 1/1/1 2/2/2 4/3/3
f 4/3/3 2/2/2 3/4/4
f 5/5/5 1/6/6 6/7/7
f 6/7/7 1/6/6 4/8/8
f 7/9/9 5/10/10 8/11/11
f 8/11/11 5/10/10 6/12/12
f 2/13/13 7/14/14 3/15/15
f 3/15/15 7/14/14 8/16/16
f 9/17/17 10/18/18 12/19/19
f 12/19/19 10/18/18 11/20/20
f 13/21/21 9/22/22 14/23/23
f 14/23/23 9/22/22 12/24/24
f 15/25/25 13/26/26 16/27/27
f 16/27/27 13/26/26 14/28/28
f 10/29/29 15/30/30 11/31/31
f 11/31/31 15/30/30 16/32/32
f 8/33/33 14/34/34 3/35/35
f 3/35/35 14/34/34 12/36/36
f 3/35/35 12/36/36 4/37/37
f 4/37/37 12/36/36 6/38/38
f 6/38/38 12/36/36 11/39/39
f 6/38/38 11/39/39 16/40/40
f 14/34/34 8/33/33 16/40/40
f 16/40/40 8/33/33 6/38/38
f 13/41/41 15/42/42 18/43/43
f 18/43/43 15/42/42 17/44/44
f 15/45/45 10/46/46 17/47/47
f 17/47/47 10/46/46 19/48/48
f 10/49/49 9/50/50 19/51/51
f 19/51/51 9/50/50 20/52/52
f 9/53/53 13/54/54 20/55/55
f 20/55/55 13/54/54 18/56/56
usemtl Rubber_-_Hard
f 2/57/57 1/58/58 7/59/59
f 7/59/59 1/58/58 5/60/60
usemtl Steel_-_Satin
f 21/61/61 22/62/62 17/63/63
f 17/63/63 22/62/62 18/64/64
f 23/65/65 21/66/66 19/67/67
f 19/67/67 21/66/66 17/68/68
f 24/69/69 23/70/70 20/71/71
f 20/71/71 23/70/70 19/72/72
f 22/73/73 24/74/74 18/75/75
f 18/75/75 24/74/74 20/76/76
f 24/77/77 22/78/78 23/79/79
f 23/79/79 22/78/78 21/80/80
# 24 vertices
# 80 texture params
# 80 normals
# 44 facets

# 1 groups
