# WaveFront *.obj file (generated by Autodesk ATF)

mtllib Overhang.mtl

g Body1

v 5.000000 12.500000 -9.000000
v 5.000000 12.500000 -7.719375
v 5.000000 11.500000 -7.719375
v 5.000000 11.500000 -9.000000
v -5.000000 12.500000 -1.000000
v 0.000000 12.500000 -5.000000
v 0.000000 11.500000 -5.000000
v -5.000000 11.500000 -1.000000
v -3.399219 12.500000 -1.000000
v -3.399219 11.500000 -1.000000
v 5.000000 -12.500000 -7.719375
v 5.000000 -12.500000 -9.000000
v 5.000000 -11.500000 -9.000000
v 5.000000 -11.500000 -7.719375
v -3.399219 -12.500000 -1.000000
v -3.399219 -11.500000 -1.000000
v 0.000000 -12.500000 -5.000000
v -5.000000 -12.500000 -1.000000
v -5.000000 -11.500000 -1.000000
v 0.000000 -11.500000 -5.000000
v 5.000000 12.500000 -1.000000
v 5.000000 4.166667 -1.000000
v 5.000000 -4.166667 -1.000000
v 5.000000 -12.500000 -1.000000
v -5.000000 -3.833333 -1.000000
v -5.000000 3.833333 -1.000000
v 5.000000 12.500000 0.000000
v 5.000000 4.166667 0.000000
v 5.000000 -4.166667 0.000000
v 5.000000 -12.500000 0.000000
v -5.000000 12.500000 0.000000
v -5.000000 -12.500000 0.000000
v -5.000000 -4.166667 0.000000
v -5.000000 4.166667 0.000000
vt 0.000000 0.000000 0.000000
vt 1.280625 0.000000 0.000000
vt 0.000000 1.000000 0.000000
vt 1.280625 1.000000 0.000000
vt 0.000000 0.000000 0.000000
vt 6.403124 0.000000 0.000000
vt 0.000000 1.000000 0.000000
vt 6.403124 1.000000 0.000000
vt 12.806248 0.000000 0.000000
vt 12.806248 1.000000 0.000000
vt -0.000000 0.000000 0.000000
vt 10.756248 0.000000 0.000000
vt -0.000000 1.000000 0.000000
vt 10.756248 1.000000 0.000000
vt 4.000000 5.000000 0.000000
vt 2.719375 5.000000 0.000000
vt 0.000000 0.000000 0.000000
vt -4.000000 -3.399219 0.000000
vt -4.000000 -5.000000 0.000000
vt -0.000000 0.000000 0.000000
vt 1.280625 0.000000 0.000000
vt -0.000000 1.000000 0.000000
vt 1.280625 1.000000 0.000000
vt -0.000000 0.000000 0.000000
vt 10.756248 0.000000 0.000000
vt -0.000000 1.000000 0.000000
vt 10.756248 1.000000 0.000000
vt 0.000000 0.000000 0.000000
vt 6.403124 0.000000 0.000000
vt 0.000000 1.000000 0.000000
vt 6.403124 1.000000 0.000000
vt 12.806248 0.000000 0.000000
vt 12.806248 1.000000 0.000000
vt -4.000000 5.000000 0.000000
vt 0.000000 0.000000 0.000000
vt -2.719375 5.000000 0.000000
vt 4.000000 -3.399219 0.000000
vt 4.000000 -5.000000 0.000000
vt 3.399219 12.500000 0.000000
vt -5.000000 12.500000 0.000000
vt 3.399219 11.500000 0.000000
vt -5.000000 4.166667 0.000000
vt 5.000000 3.833333 0.000000
vt -5.000000 -4.166667 0.000000
vt 5.000000 -3.833333 0.000000
vt 3.399219 -11.500000 0.000000
vt 5.000000 -11.500000 0.000000
vt -5.000000 -12.500000 0.000000
vt 3.399219 -12.500000 0.000000
vt 5.000000 11.500000 0.000000
vt 0.000000 0.000000 0.000000
vt 8.333333 0.000000 0.000000
vt 0.000000 1.000000 0.000000
vt 8.333333 1.000000 0.000000
vt 16.666667 0.000000 0.000000
vt 16.666667 1.000000 0.000000
vt 25.000000 0.000000 0.000000
vt 25.000000 1.000000 0.000000
vt 0.000000 1.000000 0.000000
vt 0.000000 0.000000 0.000000
vt 1.600781 1.000000 0.000000
vt 10.000000 0.000000 0.000000
vt 10.000000 1.000000 0.000000
vt 5.000000 5.000000 0.000000
vt 10.000000 7.719375 0.000000
vt 10.000000 9.000000 0.000000
vt 0.000000 1.000000 0.000000
vt 0.000000 0.000000 0.000000
vt 1.000000 1.000000 0.000000
vt 8.333333 0.000000 0.000000
vt 8.666667 1.000000 0.000000
vt 16.666667 0.000000 0.000000
vt 16.333333 1.000000 0.000000
vt 24.000000 1.000000 0.000000
vt 25.000000 0.000000 0.000000
vt 25.000000 1.000000 0.000000
vt 0.000000 1.000000 0.000000
vt 0.000000 0.000000 0.000000
vt 8.399219 1.000000 0.000000
vt 10.000000 0.000000 0.000000
vt 10.000000 1.000000 0.000000
vt 5.000000 5.000000 0.000000
vt 0.000000 7.719375 0.000000
vt 0.000000 9.000000 0.000000
vt -5.000000 -12.500000 0.000000
vt 5.000000 -12.500000 0.000000
vt -5.000000 -4.166667 0.000000
vt 5.000000 -4.166667 0.000000
vt -5.000000 4.166667 0.000000
vt 5.000000 4.166667 0.000000
vt -5.000000 12.500000 0.000000
vt 5.000000 12.500000 0.000000
vn 1.000000 0.000000 -0.000000
vn 1.000000 0.000000 -0.000000
vn 1.000000 0.000000 -0.000000
vn 1.000000 0.000000 -0.000000
vn -0.624695 -0.000000 -0.780869
vn -0.624695 -0.000000 -0.780869
vn -0.624695 -0.000000 -0.780869
vn -0.624695 -0.000000 -0.780869
vn -0.624695 -0.000000 -0.780869
vn -0.624695 -0.000000 -0.780869
vn 0.624695 0.000000 0.780869
vn 0.624695 0.000000 0.780869
vn 0.624695 0.000000 0.780869
vn 0.624695 0.000000 0.780869
vn 0.000000 -1.000000 0.000000
vn 0.000000 -1.000000 0.000000
vn 0.000000 -1.000000 0.000000
vn 0.000000 -1.000000 0.000000
vn 0.000000 -1.000000 0.000000
vn 1.000000 0.000000 0.000000
vn 1.000000 0.000000 0.000000
vn 1.000000 0.000000 0.000000
vn 1.000000 0.000000 0.000000
vn 0.624695 -0.000000 0.780869
vn 0.624695 -0.000000 0.780869
vn 0.624695 -0.000000 0.780869
vn 0.624695 -0.000000 0.780869
vn -0.624695 0.000000 -0.780869
vn -0.624695 0.000000 -0.780869
vn -0.624695 0.000000 -0.780869
vn -0.624695 0.000000 -0.780869
vn -0.624695 0.000000 -0.780869
vn -0.624695 0.000000 -0.780869
vn 0.000000 1.000000 0.000000
vn 0.000000 1.000000 0.000000
vn 0.000000 1.000000 0.000000
vn 0.000000 1.000000 0.000000
vn 0.000000 1.000000 0.000000
vn 0.000000 0.000000 -1.000000
vn 0.000000 0.000000 -1.000000
vn 0.000000 0.000000 -1.000000
vn 0.000000 0.000000 -1.000000
vn 0.000000 0.000000 -1.000000
vn 0.000000 0.000000 -1.000000
vn 0.000000 0.000000 -1.000000
vn 0.000000 0.000000 -1.000000
vn 0.000000 0.000000 -1.000000
vn 0.000000 0.000000 -1.000000
vn 0.000000 0.000000 -1.000000
vn 0.000000 0.000000 -1.000000
vn 1.000000 0.000000 0.000000
vn 1.000000 0.000000 0.000000
vn 1.000000 0.000000 0.000000
vn 1.000000 0.000000 0.000000
vn 1.000000 0.000000 0.000000
vn 1.000000 0.000000 0.000000
vn 1.000000 0.000000 0.000000
vn 1.000000 0.000000 0.000000
vn -0.000000 1.000000 0.000000
vn -0.000000 1.000000 0.000000
vn -0.000000 1.000000 0.000000
vn -0.000000 1.000000 0.000000
vn -0.000000 1.000000 0.000000
vn -0.000000 1.000000 0.000000
vn -0.000000 1.000000 0.000000
vn -0.000000 1.000000 0.000000
vn -1.000000 0.000000 0.000000
vn -1.000000 0.000000 0.000000
vn -1.000000 0.000000 0.000000
vn -1.000000 0.000000 0.000000
vn -1.000000 0.000000 0.000000
vn -1.000000 0.000000 0.000000
vn -1.000000 0.000000 0.000000
vn -1.000000 0.000000 0.000000
vn -1.000000 0.000000 0.000000
vn -1.000000 0.000000 0.000000
vn -0.000000 -1.000000 -0.000000
vn -0.000000 -1.000000 -0.000000
vn -0.000000 -1.000000 -0.000000
vn -0.000000 -1.000000 -0.000000
vn -0.000000 -1.000000 -0.000000
vn -0.000000 -1.000000 -0.000000
vn -0.000000 -1.000000 -0.000000
vn -0.000000 -1.000000 -0.000000
vn 0.000000 -0.000000 1.000000
vn 0.000000 -0.000000 1.000000
vn 0.000000 -0.000000 1.000000
vn 0.000000 -0.000000 1.000000
vn 0.000000 -0.000000 1.000000
vn 0.000000 -0.000000 1.000000
vn 0.000000 -0.000000 1.000000
vn 0.000000 -0.000000 1.000000
usemtl Steel_-_Satin
f 1/1/1 2/2/2 4/3/3
f 4/3/3 2/2/2 3/4/4
f 5/5/5 6/6/6 8/7/7
f 8/7/7 6/6/6 7/8/8
f 7/8/8 6/6/6 1/9/9
f 7/8/8 1/9/9 4/10/10
f 2/11/11 9/12/12 3/13/13
f 3/13/13 9/12/12 10/14/14
f 4/15/15 3/16/16 7/17/17
f 7/17/17 3/16/16 10/18/18
f 7/17/17 10/18/18 8/19/19
f 11/20/20 12/21/21 14/22/22
f 14/22/22 12/21/21 13/23/23
f 15/24/24 11/25/25 16/26/26
f 16/26/26 11/25/25 14/27/27
f 12/28/28 17/29/29 13/30/30
f 13/30/30 17/29/29 20/31/31
f 20/31/31 17/29/29 18/32/32
f 20/31/31 18/32/32 19/33/33
f 13/34/34 20/35/35 14/36/36
f 14/36/36 20/35/35 16/37/37
f 16/37/37 20/35/35 19/38/38
f 9/39/39 21/40/40 10/41/41
f 10/41/41 21/40/40 22/42/42
f 10/41/41 22/42/42 26/43/43
f 26/43/43 22/42/42 23/44/44
f 26/43/43 23/44/44 25/45/45
f 25/45/45 23/44/44 16/46/46
f 25/45/45 16/46/46 19/47/47
f 23/44/44 24/48/48 16/46/46
f 16/46/46 24/48/48 15/49/49
f 26/43/43 8/50/50 10/41/41
f 27/51/51 28/52/52 21/53/53
f 21/53/53 28/52/52 22/54/54
f 22/54/54 28/52/52 29/55/55
f 22/54/54 29/55/55 23/56/56
f 23/56/56 29/55/55 30/57/57
f 23/56/56 30/57/57 24/58/58
f 5/59/59 31/60/60 9/61/61
f 9/61/61 31/60/60 27/62/62
f 9/61/61 27/62/62 21/63/63
f 5/59/59 9/61/61 6/64/64
f 6/64/64 9/61/61 2/65/65
f 6/64/64 2/65/65 1/66/66
f 18/67/67 32/68/68 19/69/69
f 19/69/69 32/68/68 33/70/70
f 19/69/69 33/70/70 25/71/71
f 25/71/71 33/70/70 34/72/72
f 25/71/71 34/72/72 26/73/73
f 26/73/73 34/72/72 8/74/74
f 8/74/74 34/72/72 31/75/75
f 8/74/74 31/75/75 5/76/76
f 24/77/77 30/78/78 15/79/79
f 15/79/79 30/78/78 32/80/80
f 15/79/79 32/80/80 18/81/81
f 18/81/81 17/82/82 15/79/79
f 15/79/79 17/82/82 11/83/83
f 11/83/83 17/82/82 12/84/84
f 32/85/85 30/86/86 33/87/87
f 33/87/87 30/86/86 29/88/88
f 33/87/87 29/88/88 34/89/89
f 34/89/89 29/88/88 28/90/90
f 34/89/89 28/90/90 31/91/91
f 31/91/91 28/90/90 27/92/92
# 34 vertices
# 92 texture params
# 92 normals
# 64 facets

# 1 groups
