<?xml version="1.0" encoding="UTF-8" standalone="no"?>
<!-- Created with Inkscape (http://www.inkscape.org/) -->

<svg
   width="210mm"
   height="297mm"
   viewBox="0 0 210 297"
   version="1.1"
   id="svg1"
   inkscape:version="1.4 (e7c3feb1, 2024-10-09)"
   sodipodi:docname="dial.svg"
   xmlns:inkscape="http://www.inkscape.org/namespaces/inkscape"
   xmlns:sodipodi="http://sodipodi.sourceforge.net/DTD/sodipodi-0.dtd"
   xmlns="http://www.w3.org/2000/svg"
   xmlns:svg="http://www.w3.org/2000/svg">
  <sodipodi:namedview
     id="namedview1"
     pagecolor="#ffffff"
     bordercolor="#000000"
     borderopacity="0.25"
     inkscape:showpageshadow="2"
     inkscape:pageopacity="0.0"
     inkscape:pagecheckerboard="0"
     inkscape:deskcolor="#d1d1d1"
     inkscape:document-units="mm"
     inkscape:zoom="0.89887065"
     inkscape:cx="125.15705"
     inkscape:cy="504.52198"
     inkscape:window-width="3008"
     inkscape:window-height="1570"
     inkscape:window-x="0"
     inkscape:window-y="25"
     inkscape:window-maximized="1"
     inkscape:current-layer="layer1" />
  <defs
     id="defs1">
    <inkscape:path-effect
       effect="skeletal"
       id="path-effect3"
       is_visible="true"
       lpeversion="1"
       pattern="#rect2"
       copytype="repeated"
       prop_scale="1"
       scale_y_rel="false"
       spacing="1.7"
       normal_offset="-3.4"
       tang_offset="0"
       prop_units="false"
       vertical_pattern="false"
       hide_knot="false"
       fuse_tolerance="0" />
  </defs>
  <g
     inkscape:label="Layer 1"
     inkscape:groupmode="layer"
     id="layer1">
    <path
       style="fill:none;stroke:#000000;stroke-width:1.05833;stroke-dasharray:none;stroke-opacity:1"
       id="path1"
       sodipodi:type="arc"
       sodipodi:cx="119.40186"
       sodipodi:cy="109.69559"
       sodipodi:rx="38.076077"
       sodipodi:ry="38.076077"
       sodipodi:start="5.2679124"
       sodipodi:end="2.1229169"
       sodipodi:arc-type="arc"
       d="M 139.48273,77.345219 A 38.076077,38.076077 0 0 1 151.78635,129.72139 38.076077,38.076077 0 0 1 99.431193,142.1141"
       sodipodi:open="true"
       inkscape:export-filename="dial.png"
       inkscape:export-xdpi="295.90927"
       inkscape:export-ydpi="295.90927" />
    <path
       style="fill:#000000;fill-opacity:1;stroke:none;stroke-width:1.05833;stroke-dasharray:none;stroke-opacity:1"
       id="path1-0"
       sodipodi:type="arc"
       sodipodi:cx="119.40186"
       sodipodi:cy="109.69559"
       sodipodi:rx="38.076077"
       sodipodi:ry="38.076077"
       sodipodi:start="5.3195046"
       sodipodi:end="2.1221811"
       sodipodi:arc-type="arc"
       d="m 144.90011,72.988142 -3.67221,5.286538 c 0.2698,0.187622 0.53644,0.378975 0.79989,0.573958 l 3.81705,-5.162124 c -0.31107,-0.236583 -0.62599,-0.469407 -0.94473,-0.698372 z m 1.75951,3.207872 -3.15829,3.808084 c 0.20404,0.169328 0.40595,0.340926 0.60572,0.514739 l 3.24232,-3.728553 c -0.22745,-0.200388 -0.45737,-0.398496 -0.68975,-0.59427 z m 2.25214,2.044075 -3.43187,3.540116 c 0.18978,0.184035 0.37739,0.37016 0.56283,0.558324 l 3.5092,-3.459226 c -0.21088,-0.215193 -0.42427,-0.428282 -0.64016,-0.639214 z m 2.08432,2.189537 -3.6829,3.267704 c 0.17507,0.197326 0.34794,0.396561 0.5186,0.597652 l 3.75344,-3.185548 c -0.19384,-0.228542 -0.39022,-0.455162 -0.58914,-0.679808 z m 2.93621,1.288621 -5.03784,3.889406 c 0.19846,0.25704 0.39354,0.51672 0.58522,0.778938 l 5.13969,-3.756624 c -0.22497,-0.306607 -0.454,-0.610547 -0.68707,-0.91172 z m 0.72566,3.488433 -4.118,2.70843 c 0.14509,0.220553 0.28791,0.442656 0.42845,0.666254 l 4.17502,-2.623642 c -0.15921,-0.251926 -0.32104,-0.502291 -0.48547,-0.751042 z m 1.56449,2.55225 -4.30108,2.42285 c 0.12985,0.230462 0.2574,0.462294 0.38264,0.695443 l 4.35139,-2.3367 c -0.14167,-0.261931 -0.28599,-0.52248 -0.43295,-0.781593 z m 1.38712,2.649303 -4.4616,2.132823 c 0.11424,0.238901 0.22614,0.478991 0.33569,0.720217 l 4.50513,-2.045409 c -0.12373,-0.270429 -0.25014,-0.539657 -0.37922,-0.807631 z m 2.47847,2.011807 -5.93496,2.401095 c 0.12248,0.30267 0.24138,0.606888 0.35666,0.912553 l 5.99383,-2.259946 c -0.13425,-0.352843 -0.27276,-0.704111 -0.41553,-1.053702 z m -0.24252,3.540775 -4.71528,1.53824 c 0.0824,0.252458 0.16235,0.505744 0.23991,0.759806 l 4.74528,-1.448194 c -0.0872,-0.284142 -0.17719,-0.567444 -0.26991,-0.849852 z m 0.83905,2.866253 -4.80786,1.235052 c 0.0662,0.25755 0.12989,0.51576 0.19117,0.77456 l 4.83113,-1.143635 c -0.0687,-0.289339 -0.14017,-0.578015 -0.21444,-0.865977 z m 0.65212,2.914862 -4.87787,0.92741 c 0.0497,0.26115 0.0968,0.52278 0.14151,0.78482 l 4.89438,-0.83474 c -0.0498,-0.29299 -0.10253,-0.58551 -0.15802,-0.87749 z m 1.87931,2.57394 -6.3636,0.8216 c 0.0419,0.32452 0.08,0.64949 0.11422,0.97481 l 6.37946,-0.67209 c -0.0389,-0.37529 -0.0822,-0.7501 -0.13008,-1.12432 z m -1.14504,3.3649 -4.95012,0.29752 c 0.0159,0.26504 0.0293,0.53019 0.0401,0.79539 l 4.95311,-0.20221 c -0.0115,-0.29704 -0.0258,-0.59396 -0.0431,-0.8907 z m 0.0758,2.98608 -4.95222,-0.0233 c -0.001,0.26532 -0.005,0.53057 -0.0116,0.7957 l 4.94845,0.11996 c 0.008,-0.29742 0.0132,-0.59489 0.0154,-0.89237 z m -0.12069,2.98622 -4.9317,-0.34855 c -0.0187,0.26409 -0.04,0.52793 -0.064,0.79146 l 4.9212,0.44648 c 0.0278,-0.29624 0.0526,-0.59272 0.0745,-0.88939 z m 1.13872,2.97502 -6.32372,-0.84907 c -0.0434,0.32257 -0.0907,0.6445 -0.14211,0.9657 l 6.29659,1.00694 c 0.0611,-0.37395 0.11751,-0.74851 0.16924,-1.12357 z m -1.98187,2.96081 -4.82253,-1.01375 c -0.0543,0.2583 -0.11133,0.516 -0.17104,0.77302 l 4.79851,1.11431 c 0.068,-0.29061 0.13306,-0.58182 0.19506,-0.87358 z m -0.7252,2.91174 -4.73413,-1.35217 c -0.0725,0.25375 -0.14769,0.50671 -0.22564,0.75883 l 4.70334,1.45409 c 0.0885,-0.28615 0.17402,-0.57309 0.25643,-0.86075 z m -0.93128,2.86336 -4.6231,-1.69503 c -0.0908,0.2477 -0.18437,0.49443 -0.2807,0.74014 l 4.58559,1.79822 c 0.10917,-0.28017 0.21524,-0.56129 0.31821,-0.84333 z m 0.2567,3.21504 -5.81534,-2.61091 c -0.13321,0.29684 -0.27065,0.59194 -0.41234,0.88522 l 5.74522,2.77716 c 0.16572,-0.34882 0.32653,-0.69935 0.48246,-1.05147 z m -2.75305,2.32851 -4.3325,-2.39555 c -0.12832,0.23225 -0.25945,0.46316 -0.39343,0.69269 l 4.28147,2.50136 c 0.15132,-0.26486 0.29947,-0.53105 0.44446,-0.7985 z m -1.56866,2.63995 -4.14905,-2.7485 c -0.14753,0.22245 -0.29755,0.44287 -0.45004,0.66126 l 4.07335,2.84145 c 0.17779,-0.24904 0.35306,-0.50044 0.52574,-0.75421 z m -1.81962,2.4695 -3.89378,-3.05189 c -0.16363,0.20863 -0.32958,0.4152 -0.49781,0.6197 l 3.81662,3.13808 c 0.19402,-0.23289 0.38569,-0.46819 0.57497,-0.70589 z m -0.78081,3.13458 -4.7187,-4.28564 c -0.21877,0.2408 -0.44082,0.47842 -0.66605,0.71283 l 4.59358,4.41247 c 0.26707,-0.27603 0.53083,-0.55592 0.79117,-0.83966 z m -3.3414,1.32658 -3.36697,-3.59235 c -0.19247,0.18039 -0.38692,0.35863 -0.58328,0.53472 l 3.2868,3.66509 c 0.22316,-0.2 0.44432,-0.40249 0.66345,-0.60746 z m -2.26896,1.97608 -3.09663,-3.82818 c -0.20518,0.16599 -0.41216,0.32979 -0.62087,0.4914 l 3.01492,3.89426 c 0.23602,-0.1833 0.47024,-0.36913 0.70258,-0.55748 z m -2.39491,1.80692 -2.82123,-4.04158 c -0.21645,0.15113 -0.43452,0.30003 -0.65415,0.4467 l 2.73806,4.10092 c 0.24742,-0.16611 0.49322,-0.3348 0.73732,-0.50604 z m -1.59478,2.7699 -3.30791,-5.45614 c -0.2783,0.16876 -0.55878,0.33411 -0.84136,0.496 l 3.17323,5.54023 c 0.32762,-0.18927 0.653,-0.38264 0.97604,-0.58009 z m -3.53536,0.33067 -2.25406,-4.40167 c -0.23569,0.12073 -0.47264,0.23916 -0.71078,0.35528 l 2.16788,4.44755 c 0.26695,-0.13107 0.53262,-0.2648 0.79696,-0.40116 z m -2.6993,1.28121 -1.96361,-4.54753 c -0.24362,0.10522 -0.48832,0.2081 -0.73405,0.30863 l 1.87588,4.58673 c 0.27504,-0.11325 0.54898,-0.2292 0.82178,-0.34783 z m -2.77712,1.10113 -1.66807,-4.67094 c -0.25008,0.0893 -0.50106,0.17627 -0.75288,0.26082 l 1.57889,4.70343 c 0.28162,-0.095 0.56232,-0.19282 0.84206,-0.29331 z m -2.2517,2.25937 -1.79293,-6.16087 c -0.31417,0.0915 -0.62944,0.17922 -0.94572,0.2633 l 1.64869,6.2022 c 0.3645,-0.0972 0.72786,-0.19876 1.08996,-0.30463 z m -3.49937,-0.60596 -1.06055,-4.85066 c -0.2597,0.0568 -0.51994,0.1111 -0.78066,0.16294 l 0.96837,4.8697 c 0.29152,-0.0579 0.58249,-0.11852 0.87284,-0.18198 z m -2.93661,0.54315 -0.74997,-4.90655 c -0.26284,0.0402 -0.52605,0.0778 -0.78956,0.11296 l 0.65623,4.91889 c 0.29483,-0.0389 0.58928,-0.0807 0.8833,-0.1253 z m -2.96625,0.35216 -0.4343,-4.93998 c -0.2645,0.0232 -0.52918,0.0439 -0.79398,0.0621 l 0.33912,4.9456 c 0.2966,-0.0197 0.59301,-0.0422 0.88916,-0.0677 z m -2.75156,1.60297 -0.17376,-6.39981 c -0.32639,0.009 -0.6528,0.0137 -0.97913,0.0147 l 0.0199,6.3984 c 0.37774,1.4e-4 0.75542,-0.004 1.13294,-0.0133 z m -3.23342,-1.4833 0.21356,-4.93932 c -0.2645,-0.0115 -0.52882,-0.0256 -0.79291,-0.0423 l -0.31175,4.9315 c 0.29689,0.0197 0.59395,0.0364 0.8911,0.0501 z m -2.98087,-0.2381 0.54427,-4.90524 c -0.26285,-0.0292 -0.52534,-0.0611 -0.78742,-0.0956 l -0.64403,4.89071 c 0.29541,0.0397 0.59115,0.0764 0.88718,0.11013 z m -2.96231,-0.44 0.88007,-4.84868 c -0.2597,-0.0472 -0.51887,-0.097 -0.77745,-0.14961 l -0.98126,4.82745 c 0.29239,0.06 0.58528,0.11694 0.87864,0.17084 z m -3.09438,0.80071 1.54962,-6.17297 c -0.31497,-0.0791 -0.62886,-0.16231 -0.94159,-0.24972 l -1.71299,6.12882 c 0.36734,0.10278 0.73569,0.20073 1.10496,0.29387 z m -2.7375,-2.30135 1.56828,-4.66766 c -0.25009,-0.084 -0.49929,-0.1708 -0.74753,-0.2604 l -1.67249,4.63298 c 0.28306,0.10149 0.56699,0.19984 0.85174,0.29508 z m -2.83209,-1.06253 1.91912,-4.54361 c -0.24363,-0.10285 -0.48619,-0.20853 -0.72763,-0.31706 l -2.02488,4.5022 c 0.27676,0.12266 0.55458,0.24215 0.83339,0.35847 z m -2.765283,-1.27536 2.275043,-4.39706 c -0.2357,-0.12185 -0.47015,-0.24657 -0.70329,-0.37416 l -2.382249,4.34897 c 0.268952,0.14396 0.539135,0.2847 0.810496,0.42225 z"
       sodipodi:open="true"
       inkscape:path-effect="#path-effect3" />
    <g
       id="g3"
       transform="matrix(0.88413269,0,0,1,6.2956117,0)">
      <path
         id="rect2"
         style="stroke-width:1.05815"
         d="m 49.745113,186.30902 h 11.223884 v -2.04554 H 49.745113 Z m 2.541053,-5.94979 h 8.682831 v -1.66141 h -8.682831 z m 0,-5.56566 h 8.682831 v -1.66236 h -8.682831 z m 0,-5.56661 h 8.682831 v -1.6614 h -8.682831 z"
         transform="matrix(0,0.5734928,-0.54214392,0,155.34097,151.14584)" />
    </g>
    <text
       xml:space="preserve"
       style="font-size:5.64444px;text-align:start;writing-mode:lr-tb;direction:ltr;text-anchor:start;fill:#000000;fill-opacity:1;stroke:none;stroke-width:0.590021;stroke-dasharray:none;stroke-opacity:1"
       x="135.91652"
       y="74.010918"
       id="text3"><tspan
         sodipodi:role="line"
         id="tspan3"
         style="font-size:5.64444px;stroke-width:0.590021"
         x="135.91652"
         y="74.010918">50°C</tspan></text>
    <text
       xml:space="preserve"
       style="font-size:6.35px;text-align:start;writing-mode:lr-tb;direction:ltr;text-anchor:start;fill:#000000;fill-opacity:1;stroke:none;stroke-width:0.590021;stroke-dasharray:none;stroke-opacity:1"
       x="97.656921"
       y="157.62553"
       id="text3-5"><tspan
         sodipodi:role="line"
         id="tspan3-5"
         style="font-size:6.35px;stroke-width:0.590021"
         x="97.656921"
         y="157.62553">100°C</tspan></text>
    <text
       xml:space="preserve"
       style="font-size:6.35px;text-align:start;writing-mode:lr-tb;direction:ltr;text-anchor:start;fill:#000000;fill-opacity:1;stroke:none;stroke-width:0.590021;stroke-dasharray:none;stroke-opacity:1"
       x="-59.793961"
       y="203.81117"
       id="text3-5-5"
       transform="rotate(-65.565296)"><tspan
         sodipodi:role="line"
         id="tspan3-5-5"
         style="font-size:6.35px;stroke-width:0.590021"
         x="-59.793961"
         y="203.81117">75°C</tspan></text>
    <text
       xml:space="preserve"
       style="font-size:7.05556px;text-align:start;writing-mode:lr-tb;direction:ltr;text-anchor:start;fill:#000000;fill-opacity:1;stroke:none;stroke-width:0.590021;stroke-dasharray:none;stroke-opacity:1"
       x="80.870537"
       y="86.088829"
       id="text4"
       inkscape:export-filename="text4.png"
       inkscape:export-xdpi="295.90927"
       inkscape:export-ydpi="295.90927"><tspan
         sodipodi:role="line"
         id="tspan4"
         style="stroke-width:0.590021"
         x="80.870537"
         y="86.088829">Thermometer</tspan></text>
  </g>
</svg>
