<?xml version="1.0" encoding="UTF-8"?>
<svg xmlns="http://www.w3.org/2000/svg" xmlns:xlink="http://www.w3.org/1999/xlink" width="800px" height="800px" viewBox="0 0 800 685" version="1.1">
<g id="surface1">
<path style=" stroke:none;fill-rule:nonzero;fill:rgb(80.000001%,0%,0%);fill-opacity:1;" d="M 706.828125 258.183594 C 707.472656 258.144531 713.21875 258.144531 719.585938 258.164062 C 731.183594 258.222656 734.324219 258.351562 742.78125 259.105469 C 753.003906 260.03125 764.195312 261.707031 774.257812 263.835938 C 778.878906 264.816406 785.140625 266.289062 785.285156 266.4375 C 785.320312 266.457031 783.75 266.550781 781.820312 266.628906 C 758.429688 267.476562 736.089844 273.394531 720.121094 282.949219 C 707.398438 290.546875 697.890625 300.6875 692.25 312.636719 C 689.628906 318.160156 688.644531 322.265625 688.859375 326.753906 C 689.144531 333.160156 691.625 338.703125 699.15625 349.769531 C 703.546875 356.214844 706.648438 361.058594 708.828125 364.84375 C 717.480469 379.90625 721.90625 394.890625 723.28125 413.851562 C 723.601562 418.335938 723.546875 430.492188 723.171875 435.335938 C 721.941406 451.621094 719.621094 463.910156 715.480469 476.238281 C 704.402344 509.257812 681.507812 537.945312 648.925781 559.640625 C 630.441406 571.96875 608.351562 582.03125 585.046875 588.742188 C 566.347656 594.132812 548.039062 597.226562 526.253906 598.695312 C 521.277344 599.03125 499.667969 599.03125 494.671875 598.695312 C 481.933594 597.847656 472.441406 596.695312 461.304688 594.679688 C 453.722656 593.324219 442.679688 590.816406 442.859375 590.515625 C 442.910156 590.4375 444.265625 590.363281 445.890625 590.363281 C 453.832031 590.363281 466.695312 588.742188 475.921875 586.574219 C 496.671875 581.710938 512.5 573.550781 523.882812 561.847656 C 528.984375 556.585938 532.785156 551.234375 535.800781 545.035156 C 538.28125 539.910156 539.261719 536.476562 539.40625 532.386719 C 539.691406 524.753906 537.570312 519.722656 528.269531 506.019531 C 525.023438 501.214844 521.527344 495.785156 519.957031 493.089844 C 511.160156 478.03125 506.539062 462.78125 505.109375 444.199219 C 504.863281 440.898438 504.71875 432.097656 504.863281 428.121094 C 505.71875 403.691406 510.375 383.523438 519.652344 364.089844 C 532.570312 337.046875 554.570312 313.125 583.210938 294.996094 C 613.0625 276.089844 649.820312 263.6875 688.269531 259.578125 C 694.320312 258.9375 698.011719 258.65625 706.828125 258.183594 Z M 706.828125 258.183594 "/>
<path style=" stroke:none;fill-rule:nonzero;fill:rgb(80.000001%,0%,0%);fill-opacity:1;" d="M 625.414062 441.054688 L 539.828125 585.433594 C 531.785156 598.996094 536.277344 616.503906 549.851562 624.535156 C 554.261719 627.140625 559.289062 628.519531 564.410156 628.519531 L 735.582031 628.519531 C 751.363281 628.519531 764.152344 615.738281 764.152344 599.976562 C 764.152344 594.859375 762.777344 589.835938 760.167969 585.433594 L 674.578125 441.054688 C 666.539062 427.492188 649.011719 423.007812 635.4375 431.039062 C 631.304688 433.484375 627.855469 436.925781 625.410156 441.054688 Z M 625.414062 441.054688 "/>
<path style="fill:none;stroke-width:1.5;stroke-linecap:round;stroke-linejoin:miter;stroke:rgb(100%,100%,100%);stroke-opacity:1;stroke-miterlimit:4;" d="M 9.5 10.499909 L 9.5 5.500091 " transform="matrix(14.285714,0,0,14.270833,514.285714,399.583333)"/>
<path style=" stroke:none;fill-rule:nonzero;fill:rgb(100%,100%,100%);fill-opacity:1;" d="M 664.285156 585.105469 C 664.285156 577.222656 657.890625 570.832031 650 570.832031 C 642.109375 570.832031 635.714844 577.222656 635.714844 585.105469 C 635.714844 592.984375 642.109375 599.375 650 599.375 C 657.890625 599.375 664.285156 592.984375 664.285156 585.105469 Z M 664.285156 585.105469 "/>
</g>
</svg>
