<?xml version="1.0" encoding="UTF-8"?>
<svg xmlns="http://www.w3.org/2000/svg" xmlns:xlink="http://www.w3.org/1999/xlink" width="800px" height="800px" viewBox="0 0 800 685" version="1.1">
<g id="surface1">
<path style=" stroke:none;fill-rule:nonzero;fill:rgb(100%,64.705884%,0%);fill-opacity:1;" d="M 502.855469 74.207031 L 494.855469 87.910156 L 488 74.207031 L 474.285156 66.214844 L 488 59.367188 L 494.855469 45.667969 L 502.855469 59.367188 L 516.570312 66.214844 Z M 502.855469 74.207031 "/>
<path style=" stroke:none;fill-rule:nonzero;fill:rgb(100%,64.705884%,0%);fill-opacity:1;" d="M 731.429688 188.375 L 723.429688 202.074219 L 716.570312 188.375 L 702.855469 180.382812 L 716.570312 173.535156 L 723.429688 159.832031 L 731.429688 173.535156 L 745.144531 180.382812 Z M 731.429688 188.375 "/>
<path style="fill-rule:nonzero;fill:rgb(100%,64.705884%,0%);fill-opacity:1;stroke-width:2;stroke-linecap:butt;stroke-linejoin:round;stroke:rgb(100%,64.705884%,0%);stroke-opacity:1;stroke-miterlimit:4;" d="M 14.499853 13.200045 C 14.499853 9.5 16.500049 6.29984 19.5 4.500114 C 17.999853 3.599909 16.300097 3.199932 14.499853 3.199932 C 9 3.199932 4.499902 7.699931 4.499902 13.200045 C 4.499902 18.700159 9 23.200159 14.499853 23.200159 C 16.300097 23.200159 17.999853 22.699931 19.5 21.899977 C 16.500049 20.200159 14.499853 16.900091 14.499853 13.200045 Z M 14.499853 13.200045 " transform="matrix(11.428572,0,0,11.416667,457.142857,28.541667)"/>
<path style="fill-rule:nonzero;fill:rgb(34.117648%,62.7451%,93.333334%);fill-opacity:1;stroke-width:1.2;stroke-linecap:butt;stroke-linejoin:round;stroke:rgb(100%,100%,100%);stroke-opacity:1;stroke-miterlimit:4;" d="M 47.699961 35.400091 C 47.699961 30.799909 44.000078 27.199909 39.500117 27.199909 C 38.499883 27.199909 37.6 27.4 36.700117 27.7 C 36.399883 24.300091 33.599883 21.499909 30.099883 21.499909 C 26.4 21.499909 23.400117 24.499909 23.400117 28.200091 C 23.400117 28.999909 23.6 29.8 23.799883 30.499909 C 23.499922 30.4 23.099883 30.4 22.799922 30.4 C 19.100039 30.4 16.099883 33.4 16.099883 37.099909 C 16.099883 40.699909 18.999961 43.699909 22.600039 43.800091 L 39.800078 43.800091 C 44.199961 43.3 47.699961 39.799909 47.699961 35.400091 Z M 47.699961 35.400091 " transform="matrix(14.285714,0,0,14.270833,-57.142857,-185.520833)"/>
<path style="fill:none;stroke-width:2;stroke-linecap:round;stroke-linejoin:miter;stroke:rgb(56.862748%,75.294119%,97.254902%);stroke-opacity:1;stroke-dasharray:4,7;stroke-miterlimit:4;" d="M 34.000081 46.000042 L 33.999902 53.999894 " transform="matrix(14.068682,2.478104,-2.480688,14.054027,-22.544888,-246.347064)"/>
<path style="fill:none;stroke-width:2;stroke-linecap:round;stroke-linejoin:miter;stroke:rgb(56.862748%,75.294119%,97.254902%);stroke-opacity:1;stroke-dasharray:4,7;stroke-miterlimit:4;" d="M 33.999932 46.00015 L 34.000022 53.999954 " transform="matrix(14.068682,2.478104,-2.480688,14.054027,66.828582,-259.586493)"/>
</g>
</svg>
