<?xml version="1.0" encoding="UTF-8"?>
<svg xmlns="http://www.w3.org/2000/svg" xmlns:xlink="http://www.w3.org/1999/xlink" width="800px" height="800px" viewBox="0 0 800 685" version="1.1">
<g id="surface1">
<path style=" stroke:none;fill-rule:nonzero;fill:rgb(80.000001%,0%,0%);fill-opacity:1;" d="M 492.542969 115.476562 C 483.730469 115.945312 480.035156 116.230469 473.984375 116.871094 C 435.535156 120.976562 398.777344 133.382812 368.925781 152.285156 C 340.289062 170.417969 318.289062 194.335938 305.367188 221.382812 C 296.089844 240.816406 291.433594 260.984375 290.578125 285.410156 C 290.433594 289.386719 290.578125 298.191406 290.828125 301.488281 C 292.253906 320.074219 296.875 335.320312 305.671875 350.378906 C 307.242188 353.074219 310.738281 358.503906 313.988281 363.308594 C 323.285156 377.011719 325.40625 382.042969 325.121094 389.679688 C 324.980469 393.769531 323.996094 397.199219 321.515625 402.324219 C 318.5 408.527344 314.699219 413.878906 309.597656 419.136719 C 298.214844 430.84375 282.386719 439.003906 261.636719 443.867188 C 252.410156 446.035156 239.546875 447.652344 231.605469 447.652344 C 229.980469 447.652344 228.625 447.730469 228.574219 447.804688 C 228.394531 448.105469 239.4375 450.613281 247.023438 451.972656 C 258.15625 453.988281 267.648438 455.136719 280.390625 455.984375 C 285.382812 456.324219 306.992188 456.324219 311.96875 455.984375 C 333.757812 454.515625 352.066406 451.425781 370.761719 446.035156 C 394.066406 439.324219 416.15625 429.257812 434.640625 416.929688 C 467.222656 395.238281 490.117188 366.550781 501.199219 333.527344 C 505.335938 321.203125 507.65625 308.910156 508.886719 292.628906 C 509.261719 287.785156 509.316406 275.625 508.996094 271.140625 C 507.621094 252.179688 503.195312 237.195312 494.542969 222.136719 C 492.363281 218.347656 489.261719 213.503906 484.871094 207.058594 C 477.34375 195.992188 474.859375 190.453125 474.574219 184.042969 C 474.363281 179.558594 475.34375 175.449219 477.964844 169.925781 C 483.605469 157.976562 493.113281 147.835938 505.835938 140.242188 C 521.804688 130.683594 544.144531 124.765625 567.539062 123.917969 C 569.464844 123.84375 571.035156 123.746094 571 123.730469 C 570.855469 123.578125 564.59375 122.109375 559.972656 121.128906 C 549.910156 119 538.722656 117.320312 528.496094 116.398438 C 520.039062 115.644531 516.898438 115.511719 505.300781 115.457031 C 498.933594 115.4375 493.1875 115.4375 492.542969 115.472656 Z M 407.164062 250.992188 C 416.765625 252.460938 425.597656 258.683594 430.664062 267.578125 C 433.910156 273.273438 435.464844 279.132812 435.464844 285.84375 C 435.464844 295.398438 432.089844 304.011719 425.722656 310.722656 C 420.566406 316.1875 414.410156 319.488281 407.074219 320.710938 C 404.558594 321.144531 399.597656 321.144531 397.171875 320.710938 C 389.765625 319.429688 383.628906 316.152344 378.542969 310.796875 C 373.421875 305.390625 370.210938 298.660156 369.050781 290.835938 C 368.730469 288.746094 368.730469 282.941406 369.050781 280.847656 C 370.210938 273.027344 373.441406 266.261719 378.542969 260.890625 C 386.089844 252.933594 396.441406 249.371094 407.164062 250.992188 Z M 407.164062 250.992188 "/>
<path style=" stroke:none;fill-rule:nonzero;fill:rgb(80.000001%,0%,0%);fill-opacity:1;" d="M 625.414062 441.054688 L 539.828125 585.433594 C 531.785156 598.996094 536.277344 616.503906 549.851562 624.535156 C 554.261719 627.140625 559.289062 628.519531 564.410156 628.519531 L 735.582031 628.519531 C 751.363281 628.519531 764.152344 615.738281 764.152344 599.976562 C 764.152344 594.859375 762.777344 589.835938 760.167969 585.433594 L 674.578125 441.054688 C 666.539062 427.492188 649.011719 423.007812 635.4375 431.039062 C 631.304688 433.484375 627.855469 436.925781 625.410156 441.054688 Z M 625.414062 441.054688 "/>
<path style="fill:none;stroke-width:1.5;stroke-linecap:round;stroke-linejoin:miter;stroke:rgb(100%,100%,100%);stroke-opacity:1;stroke-miterlimit:4;" d="M 9.5 10.499909 L 9.5 5.500091 " transform="matrix(14.285714,0,0,14.270833,514.285714,399.583333)"/>
<path style=" stroke:none;fill-rule:nonzero;fill:rgb(100%,100%,100%);fill-opacity:1;" d="M 664.285156 585.105469 C 664.285156 577.222656 657.890625 570.832031 650 570.832031 C 642.109375 570.832031 635.714844 577.222656 635.714844 585.105469 C 635.714844 592.984375 642.109375 599.375 650 599.375 C 657.890625 599.375 664.285156 592.984375 664.285156 585.105469 Z M 664.285156 585.105469 "/>
</g>
</svg>
