# Blender 4.2.1 LTS
# www.blender.org
mtllib can.mtl
o Cylinder
v 0.000000 0.000000 -1.000000
v 0.045652 3.255797 -1.180134
v 0.195090 0.000000 -0.980785
v 0.266875 3.255797 -1.158346
v 0.382683 0.000000 -0.923880
v 0.479597 3.255797 -1.093817
v 0.555570 0.000000 -0.831470
v 0.675642 3.255797 -0.989029
v 0.707107 0.000000 -0.707107
v 0.847477 3.255797 -0.848007
v 0.831470 0.000000 -0.555570
v 0.988498 3.255797 -0.676172
v 0.923880 0.000000 -0.382683
v 1.093286 3.255797 -0.480127
v 0.980785 0.000000 -0.195090
v 1.157815 3.255797 -0.267406
v 1.000000 0.000000 0.000000
v 1.179603 3.255797 -0.046183
v 0.980785 0.000000 0.195090
v 1.157815 3.255797 0.175040
v 0.923880 0.000000 0.382683
v 1.093286 3.255797 0.387761
v 0.831470 0.000000 0.555570
v 0.988498 3.255797 0.583806
v 0.707107 0.000000 0.707107
v 0.847477 3.255797 0.755641
v 0.555570 0.000000 0.831470
v 0.675642 3.255797 0.896663
v 0.382683 0.000000 0.923880
v 0.479597 3.255797 1.001451
v 0.195090 0.000000 0.980785
v 0.266875 3.255797 1.065979
v 0.000000 0.000000 1.000000
v 0.045652 3.255797 1.087768
v -0.195090 0.000000 0.980785
v -0.175571 3.255797 1.065979
v -0.382683 0.000000 0.923880
v -0.388292 3.255797 1.001451
v -0.555570 0.000000 0.831470
v -0.584337 3.255797 0.896663
v -0.707107 0.000000 0.707107
v -0.756172 3.255797 0.755641
v -0.831470 0.000000 0.555570
v -0.897193 3.255797 0.583806
v -0.923880 0.000000 0.382683
v -1.001982 3.255797 0.387761
v -0.980785 0.000000 0.195090
v -1.066510 3.255797 0.175040
v -1.000000 0.000000 0.000000
v -1.088299 3.255797 -0.046183
v -0.980785 0.000000 -0.195090
v -1.066510 3.255797 -0.267406
v -0.923880 0.000000 -0.382683
v -1.001982 3.255797 -0.480127
v -0.831470 0.000000 -0.555570
v -0.897193 3.255797 -0.676172
v -0.707107 0.000000 -0.707107
v -0.756172 3.255797 -0.848008
v -0.555570 0.000000 -0.831470
v -0.584337 3.255797 -0.989029
v -0.382683 0.000000 -0.923880
v -0.388292 3.255797 -1.093817
v -0.195090 0.000000 -0.980785
v -0.175571 3.255797 -1.158346
v 0.297607 3.255797 -1.312844
v 0.045652 3.255797 -1.337659
v 0.539879 3.255797 -1.239351
v 0.763158 3.255797 -1.120006
v 0.958864 3.255797 -0.959395
v 1.119475 3.255797 -0.763689
v 1.238821 3.255797 -0.540410
v 1.312313 3.255797 -0.298138
v 1.337129 3.255797 -0.046183
v 1.312313 3.255797 0.205771
v 1.238821 3.255797 0.448043
v 1.119475 3.255797 0.671323
v 0.958864 3.255797 0.867028
v 0.763158 3.255797 1.027640
v 0.539879 3.255797 1.146985
v 0.297607 3.255797 1.220478
v 0.045652 3.255797 1.245293
v -0.206302 3.255797 1.220478
v -0.448574 3.255797 1.146985
v -0.671853 3.255797 1.027640
v -0.867559 3.255797 0.867028
v -1.028171 3.255797 0.671323
v -1.147516 3.255797 0.448043
v -1.221008 3.255797 0.205771
v -1.245824 3.255797 -0.046183
v -1.221008 3.255797 -0.298138
v -1.147516 3.255797 -0.540410
v -1.028171 3.255797 -0.763689
v -0.867559 3.255797 -0.959395
v -0.671853 3.255797 -1.120006
v -0.448574 3.255797 -1.239351
v -0.206302 3.255797 -1.312844
v 0.212093 0.747368 -0.882935
v 0.045652 0.747368 -0.899328
v 0.372137 0.747368 -0.834386
v 0.519634 0.747368 -0.755547
v 0.648917 0.747368 -0.649448
v 0.755016 0.747368 -0.520165
v 0.833855 0.747368 -0.372667
v 0.882404 0.747368 -0.212623
v 0.898797 0.747368 -0.046183
v 0.882404 0.747368 0.120257
v 0.833855 0.747368 0.280301
v 0.755016 0.747368 0.427799
v 0.648917 0.747368 0.557081
v 0.519634 0.747368 0.663181
v 0.372137 0.747368 0.742020
v 0.212093 0.747368 0.790569
v 0.045652 0.747368 0.806962
v -0.120788 0.747368 0.790569
v -0.280832 0.747368 0.742020
v -0.428330 0.747368 0.663181
v -0.557612 0.747368 0.557081
v -0.663712 0.747368 0.427799
v -0.742551 0.747368 0.280301
v -0.791100 0.747368 0.120257
v -0.807493 0.747368 -0.046183
v -0.791100 0.747368 -0.212623
v -0.742551 0.747368 -0.372667
v -0.663712 0.747368 -0.520165
v -0.557612 0.747368 -0.649448
v -0.428330 0.747368 -0.755547
v -0.280832 0.747368 -0.834386
v -0.120788 0.747368 -0.882935
vn 0.0975 -0.1040 -0.9898
vn 0.2886 -0.1061 -0.9515
vn 0.4687 -0.1076 -0.8768
vn 0.6307 -0.1083 -0.7685
vn 0.7685 -0.1083 -0.6307
vn 0.8768 -0.1075 -0.4687
vn 0.9515 -0.1060 -0.2886
vn 0.9898 -0.1039 -0.0975
vn 0.9901 -0.1011 0.0975
vn 0.9523 -0.0979 0.2889
vn 0.8780 -0.0944 0.4693
vn 0.7698 -0.0906 0.6318
vn 0.6320 -0.0867 0.7701
vn 0.4698 -0.0829 0.8789
vn 0.2894 -0.0793 0.9539
vn 0.0977 -0.0761 0.9923
vn -0.0978 -0.0734 0.9925
vn -0.2895 -0.0713 0.9545
vn -0.4702 -0.0698 0.8798
vn -0.6329 -0.0691 0.7712
vn -0.7712 -0.0691 0.6329
vn -0.8798 -0.0699 0.4702
vn -0.9545 -0.0714 0.2895
vn -0.9925 -0.0735 0.0978
vn -0.9923 -0.0763 -0.0977
vn -0.9539 -0.0795 -0.2894
vn -0.8789 -0.0831 -0.4698
vn -0.7701 -0.0869 -0.6320
vn -0.6318 -0.0908 -0.7698
vn -0.4693 -0.0946 -0.8780
vn 0.7683 0.1107 -0.6305
vn -0.2889 -0.0981 -0.9523
vn -0.0975 -0.1013 -0.9901
vn -0.0000 -1.0000 -0.0000
vn -0.0000 1.0000 -0.0000
vn -0.9891 0.1107 0.0974
vn 0.8765 0.1107 -0.4685
vn -0.9891 0.1107 -0.0974
vn 0.9511 0.1107 -0.2885
vn -0.9511 0.1107 -0.2885
vn 0.9891 0.1107 -0.0974
vn -0.8765 0.1107 -0.4685
vn 0.9891 0.1107 0.0974
vn -0.7683 0.1107 -0.6305
vn 0.9511 0.1107 0.2885
vn -0.6305 0.1107 -0.7683
vn 0.8765 0.1107 0.4685
vn -0.4685 0.1107 -0.8765
vn -0.0974 0.1107 0.9891
vn 0.7683 0.1107 0.6305
vn -0.2885 0.1107 -0.9511
vn -0.2885 0.1107 0.9511
vn 0.6305 0.1107 0.7683
vn -0.0974 0.1107 -0.9891
vn -0.4685 0.1107 0.8765
vn 0.4685 0.1107 0.8765
vn 0.0974 0.1107 -0.9891
vn -0.6305 0.1107 0.7683
vn 0.2885 0.1107 0.9511
vn 0.2885 0.1107 -0.9511
vn -0.7683 0.1107 0.6305
vn 0.0974 0.1107 0.9891
vn 0.4685 0.1107 -0.8765
vn -0.8765 0.1107 0.4685
vn 0.6305 0.1107 -0.7683
vn -0.9511 0.1107 0.2885
vt 1.000000 0.500000
vt 1.000000 1.000000
vt 0.968750 1.000000
vt 0.968750 0.500000
vt 0.937500 1.000000
vt 0.937500 0.500000
vt 0.906250 1.000000
vt 0.906250 0.500000
vt 0.875000 1.000000
vt 0.875000 0.500000
vt 0.843750 1.000000
vt 0.843750 0.500000
vt 0.812500 1.000000
vt 0.812500 0.500000
vt 0.781250 1.000000
vt 0.781250 0.500000
vt 0.750000 1.000000
vt 0.750000 0.500000
vt 0.718750 1.000000
vt 0.718750 0.500000
vt 0.687500 1.000000
vt 0.687500 0.500000
vt 0.656250 1.000000
vt 0.656250 0.500000
vt 0.625000 1.000000
vt 0.625000 0.500000
vt 0.593750 1.000000
vt 0.593750 0.500000
vt 0.562500 1.000000
vt 0.562500 0.500000
vt 0.531250 1.000000
vt 0.531250 0.500000
vt 0.500000 1.000000
vt 0.500000 0.500000
vt 0.468750 1.000000
vt 0.468750 0.500000
vt 0.437500 1.000000
vt 0.437500 0.500000
vt 0.406250 1.000000
vt 0.406250 0.500000
vt 0.375000 1.000000
vt 0.375000 0.500000
vt 0.343750 1.000000
vt 0.343750 0.500000
vt 0.312500 1.000000
vt 0.312500 0.500000
vt 0.281250 1.000000
vt 0.281250 0.500000
vt 0.250000 1.000000
vt 0.250000 0.500000
vt 0.218750 1.000000
vt 0.218750 0.500000
vt 0.187500 1.000000
vt 0.187500 0.500000
vt 0.156250 1.000000
vt 0.156250 0.500000
vt 0.125000 1.000000
vt 0.125000 0.500000
vt 0.093750 1.000000
vt 0.093750 0.500000
vt 0.062500 1.000000
vt 0.062500 0.500000
vt 0.074787 0.132927
vt 0.100994 0.100994
vt 0.031250 1.000000
vt 0.031250 0.500000
vt 0.000000 1.000000
vt 0.000000 0.500000
vt 0.750000 0.490000
vt 0.796822 0.485388
vt 0.841844 0.471731
vt 0.883337 0.449553
vt 0.919706 0.419706
vt 0.949553 0.383337
vt 0.971731 0.341844
vt 0.985388 0.296822
vt 0.990000 0.250000
vt 0.985388 0.203178
vt 0.971731 0.158156
vt 0.949553 0.116663
vt 0.919706 0.080294
vt 0.883337 0.050447
vt 0.841844 0.028269
vt 0.796822 0.014612
vt 0.750000 0.010000
vt 0.703178 0.014612
vt 0.658156 0.028269
vt 0.616663 0.050447
vt 0.580294 0.080294
vt 0.550447 0.116663
vt 0.528269 0.158156
vt 0.514612 0.203178
vt 0.510000 0.250000
vt 0.514612 0.296822
vt 0.528269 0.341844
vt 0.550447 0.383337
vt 0.580294 0.419706
vt 0.616663 0.449553
vt 0.658156 0.471731
vt 0.703178 0.485388
vt 0.250000 0.460727
vt 0.291111 0.456677
vt 0.296822 0.485388
vt 0.250000 0.490000
vt 0.330642 0.444686
vt 0.341844 0.471731
vt 0.367073 0.425213
vt 0.383337 0.449553
vt 0.399006 0.399006
vt 0.419706 0.419706
vt 0.425213 0.367073
vt 0.449553 0.383337
vt 0.444686 0.330642
vt 0.471731 0.341844
vt 0.456677 0.291111
vt 0.485388 0.296822
vt 0.460726 0.250000
vt 0.490000 0.250000
vt 0.456677 0.208889
vt 0.485388 0.203178
vt 0.444686 0.169358
vt 0.471731 0.158156
vt 0.425213 0.132927
vt 0.449553 0.116663
vt 0.399006 0.100994
vt 0.419706 0.080294
vt 0.367073 0.074787
vt 0.383337 0.050447
vt 0.330642 0.055314
vt 0.341844 0.028269
vt 0.291111 0.043323
vt 0.296822 0.014612
vt 0.250000 0.039274
vt 0.250000 0.010000
vt 0.208889 0.043323
vt 0.203178 0.014612
vt 0.169358 0.055314
vt 0.158156 0.028269
vt 0.132927 0.074787
vt 0.116663 0.050447
vt 0.080294 0.080294
vt 0.050447 0.116663
vt 0.055314 0.169358
vt 0.028269 0.158156
vt 0.043323 0.208889
vt 0.014612 0.203178
vt 0.039274 0.250000
vt 0.010000 0.250000
vt 0.043323 0.291111
vt 0.014612 0.296822
vt 0.055314 0.330642
vt 0.028269 0.341844
vt 0.074787 0.367073
vt 0.050447 0.383337
vt 0.100994 0.399006
vt 0.080294 0.419706
vt 0.132927 0.425213
vt 0.116663 0.449553
vt 0.169358 0.444686
vt 0.158156 0.471731
vt 0.208889 0.456677
vt 0.203178 0.485388
s 0
usemtl Black
f 44/63/31 42/64/31 117/64/31 118/63/31
f 97/102/35 98/101/35 128/161/35 127/159/35 126/157/35 125/155/35 124/153/35 123/151/35 122/149/35 121/147/35 120/145/35 119/143/35 118/63/35 117/64/35 116/139/35 115/137/35 114/135/35 113/133/35 112/131/35 111/129/35 110/127/35 109/125/35 108/123/35 107/121/35 106/119/35 105/117/35 104/115/35 103/113/35 102/111/35 101/109/35 100/107/35 99/105/35
f 18/117/36 16/115/36 104/115/36 105/117/36
f 46/143/37 44/63/37 118/63/37 119/143/37
f 20/119/38 18/117/38 105/117/38 106/119/38
f 48/145/39 46/143/39 119/143/39 120/145/39
f 22/121/40 20/119/40 106/119/40 107/121/40
f 50/147/41 48/145/41 120/145/41 121/147/41
f 24/123/42 22/121/42 107/121/42 108/123/42
f 52/149/43 50/147/43 121/147/43 122/149/43
f 26/125/44 24/123/44 108/123/44 109/125/44
f 54/151/45 52/149/45 122/149/45 123/151/45
f 28/127/46 26/125/46 109/125/46 110/127/46
f 56/153/47 54/151/47 123/151/47 124/153/47
f 30/129/48 28/127/48 110/127/48 111/129/48
f 4/102/49 2/101/49 98/101/49 97/102/49
f 58/155/50 56/153/50 124/153/50 125/155/50
f 32/131/51 30/129/51 111/129/51 112/131/51
f 6/105/52 4/102/52 97/102/52 99/105/52
f 60/157/53 58/155/53 125/155/53 126/157/53
f 34/133/54 32/131/54 112/131/54 113/133/54
f 8/107/55 6/105/55 99/105/55 100/107/55
f 62/159/56 60/157/56 126/157/56 127/159/56
f 36/135/57 34/133/57 113/133/57 114/135/57
f 10/109/58 8/107/58 100/107/58 101/109/58
f 64/161/59 62/159/59 127/159/59 128/161/59
f 38/137/60 36/135/60 114/135/60 115/137/60
f 12/111/61 10/109/61 101/109/61 102/111/61
f 2/101/62 64/161/62 128/161/62 98/101/62
f 40/139/63 38/137/63 115/137/63 116/139/63
f 14/113/64 12/111/64 102/111/64 103/113/64
f 42/64/65 40/139/65 116/139/65 117/64/65
f 16/115/66 14/113/66 103/113/66 104/115/66
usemtl Red
f 1/1/1 66/2/1 65/3/1 3/4/1
f 3/4/2 65/3/2 67/5/2 5/6/2
f 5/6/3 67/5/3 68/7/3 7/8/3
f 7/8/4 68/7/4 69/9/4 9/10/4
f 9/10/5 69/9/5 70/11/5 11/12/5
f 11/12/6 70/11/6 71/13/6 13/14/6
f 13/14/7 71/13/7 72/15/7 15/16/7
f 15/16/8 72/15/8 73/17/8 17/18/8
f 17/18/9 73/17/9 74/19/9 19/20/9
f 19/20/10 74/19/10 75/21/10 21/22/10
f 21/22/11 75/21/11 76/23/11 23/24/11
f 23/24/12 76/23/12 77/25/12 25/26/12
f 25/26/13 77/25/13 78/27/13 27/28/13
f 27/28/14 78/27/14 79/29/14 29/30/14
f 29/30/15 79/29/15 80/31/15 31/32/15
f 31/32/16 80/31/16 81/33/16 33/34/16
f 33/34/17 81/33/17 82/35/17 35/36/17
f 35/36/18 82/35/18 83/37/18 37/38/18
f 37/38/19 83/37/19 84/39/19 39/40/19
f 39/40/20 84/39/20 85/41/20 41/42/20
f 41/42/21 85/41/21 86/43/21 43/44/21
f 43/44/22 86/43/22 87/45/22 45/46/22
f 45/46/23 87/45/23 88/47/23 47/48/23
f 47/48/24 88/47/24 89/49/24 49/50/24
f 49/50/25 89/49/25 90/51/25 51/52/25
f 51/52/26 90/51/26 91/53/26 53/54/26
f 53/54/27 91/53/27 92/55/27 55/56/27
f 55/56/28 92/55/28 93/57/28 57/58/28
f 57/58/29 93/57/29 94/59/29 59/60/29
f 59/60/30 94/59/30 95/61/30 61/62/30
f 61/62/32 95/61/32 96/65/32 63/66/32
f 63/66/33 96/65/33 66/67/33 1/68/33
f 1/69/34 3/70/34 5/71/34 7/72/34 9/73/34 11/74/34 13/75/34 15/76/34 17/77/34 19/78/34 21/79/34 23/80/34 25/81/34 27/82/34 29/83/34 31/84/34 33/85/34 35/86/34 37/87/34 39/88/34 41/89/34 43/90/34 45/91/34 47/92/34 49/93/34 51/94/34 53/95/34 55/96/34 57/97/34 59/98/34 61/99/34 63/100/34
f 2/101/35 4/102/35 65/103/35 66/104/35
f 4/102/35 6/105/35 67/106/35 65/103/35
f 6/105/35 8/107/35 68/108/35 67/106/35
f 8/107/35 10/109/35 69/110/35 68/108/35
f 10/109/35 12/111/35 70/112/35 69/110/35
f 12/111/35 14/113/35 71/114/35 70/112/35
f 14/113/35 16/115/35 72/116/35 71/114/35
f 16/115/35 18/117/35 73/118/35 72/116/35
f 18/117/35 20/119/35 74/120/35 73/118/35
f 20/119/35 22/121/35 75/122/35 74/120/35
f 22/121/35 24/123/35 76/124/35 75/122/35
f 24/123/35 26/125/35 77/126/35 76/124/35
f 26/125/35 28/127/35 78/128/35 77/126/35
f 28/127/35 30/129/35 79/130/35 78/128/35
f 30/129/35 32/131/35 80/132/35 79/130/35
f 32/131/35 34/133/35 81/134/35 80/132/35
f 34/133/35 36/135/35 82/136/35 81/134/35
f 36/135/35 38/137/35 83/138/35 82/136/35
f 38/137/35 40/139/35 84/140/35 83/138/35
f 40/139/35 42/64/35 85/141/35 84/140/35
f 42/64/35 44/63/35 86/142/35 85/141/35
f 44/63/35 46/143/35 87/144/35 86/142/35
f 46/143/35 48/145/35 88/146/35 87/144/35
f 48/145/35 50/147/35 89/148/35 88/146/35
f 50/147/35 52/149/35 90/150/35 89/148/35
f 52/149/35 54/151/35 91/152/35 90/150/35
f 54/151/35 56/153/35 92/154/35 91/152/35
f 56/153/35 58/155/35 93/156/35 92/154/35
f 58/155/35 60/157/35 94/158/35 93/156/35
f 60/157/35 62/159/35 95/160/35 94/158/35
f 62/159/35 64/161/35 96/162/35 95/160/35
f 64/161/35 2/101/35 66/104/35 96/162/35
